<svg width="188" height="72" viewBox="0 0 188 72" fill="none" xmlns="http://www.w3.org/2000/svg">
<path d="M9.47031 28.8125H1.53906V0.546874H15.7563C18.1469 0.546874 20.1156 0.884374 21.6625 1.55937C23.2094 2.20625 24.3625 3.17656 25.1219 4.47031C25.8813 5.76406 26.2609 7.35312 26.2609 9.2375C26.2609 10.7281 26.05 12.0219 25.6281 13.1187C25.2063 14.2156 24.5172 15.1016 23.5609 15.7766C22.6328 16.4234 21.3672 16.8453 19.7641 17.0422V17.4219C21.1984 17.7875 22.2672 18.4062 22.9703 19.2781C23.7016 20.15 24.3344 21.1906 24.8687 22.4L27.8219 28.8125H18.5828L15.7984 22.9484C15.4047 22.1328 15.0391 21.5 14.7016 21.05C14.3922 20.5719 13.9844 20.2484 13.4781 20.0797C13 19.8828 12.3109 19.7844 11.4109 19.7844H9.47031V28.8125ZM9.47031 7.67656V13.2031H15.4609C16.5859 13.2031 17.3453 13.0062 17.7391 12.6125C18.1328 12.2187 18.3297 11.4594 18.3297 10.3344C18.3297 9.29375 18.1328 8.59062 17.7391 8.225C17.3453 7.85937 16.5859 7.67656 15.4609 7.67656H9.47031ZM43.538 28.8125H27.6755V0.546874H42.6943C44.8599 0.546874 46.6459 0.799999 48.0521 1.30625C49.4865 1.78437 50.5552 2.54375 51.2584 3.58437C51.9615 4.59687 52.313 5.90469 52.313 7.50781C52.313 9.27969 51.8349 10.6859 50.8787 11.7266C49.9224 12.7672 48.474 13.3719 46.5334 13.5406V14.0891C48.924 14.1734 50.6959 14.8625 51.849 16.1562C53.0302 17.45 53.6209 19.0531 53.6209 20.9656C53.6209 22.5969 53.2552 24.0031 52.524 25.1844C51.8209 26.3656 50.724 27.2656 49.2333 27.8844C47.7427 28.5031 45.8443 28.8125 43.538 28.8125ZM35.6068 17.4641V21.6828H43.2427C44.0021 21.6828 44.5787 21.5703 44.9724 21.3453C45.3662 21.1203 45.563 20.5437 45.563 19.6156C45.563 18.6594 45.3802 18.0687 45.0146 17.8437C44.649 17.5906 44.0584 17.4641 43.2427 17.4641H35.6068ZM35.6068 7.67656V11.3047H42.2724C43.088 11.3047 43.6365 11.1781 43.9177 10.925C44.2271 10.6719 44.3818 10.1937 44.3818 9.49062C44.3818 8.73125 44.199 8.23906 43.8334 8.01406C43.4959 7.78906 42.9193 7.67656 42.1037 7.67656H35.6068ZM14.9547 71.2344C11.9172 71.2344 9.34375 70.6437 7.23438 69.4625C5.15313 68.2531 3.57813 66.5656 2.50938 64.4C1.44063 62.2062 0.90625 59.6328 0.90625 56.6797C0.90625 53.7266 1.44063 51.1672 2.50938 49.0016C3.57813 46.8078 5.15313 45.1203 7.23438 43.9391C9.34375 42.7297 11.9172 42.125 14.9547 42.125C17.9359 42.125 20.4109 42.6031 22.3797 43.5594C24.3484 44.5156 25.8109 45.8375 26.7672 47.525C27.7516 49.2125 28.2438 51.1531 28.2438 53.3469V54.3172H19.7641V54.1906C19.7641 52.5594 19.4266 51.4344 18.7516 50.8156C18.0766 50.1687 16.7547 49.8453 14.7859 49.8453C13.4359 49.8453 12.3672 50.0141 11.5797 50.3516C10.8203 50.6609 10.2719 51.3078 9.93438 52.2922C9.59688 53.2484 9.42813 54.7109 9.42813 56.6797C9.42813 58.6203 9.59688 60.0828 9.93438 61.0672C10.2719 62.0516 10.8203 62.7125 11.5797 63.05C12.3672 63.3594 13.4359 63.5141 14.7859 63.5141C16.7547 63.5141 18.0766 63.2047 18.7516 62.5859C19.4266 61.9391 19.7641 60.8 19.7641 59.1687V59.0422H28.2438V60.0125C28.2438 62.2062 27.7516 64.1469 26.7672 65.8344C25.8109 67.5219 24.3484 68.8437 22.3797 69.8C20.4109 70.7563 17.9359 71.2344 14.9547 71.2344ZM43.1139 71.2344C40.1326 71.2344 37.5732 70.6437 35.4357 69.4625C33.3264 68.2531 31.7092 66.5656 30.5842 64.4C29.4592 62.2062 28.8967 59.6328 28.8967 56.6797C28.8967 53.7266 29.4592 51.1672 30.5842 49.0016C31.7092 46.8078 33.3264 45.1203 35.4357 43.9391C37.5732 42.7297 40.1326 42.125 43.1139 42.125C46.0951 42.125 48.6404 42.7297 50.7498 43.9391C52.8592 45.1203 54.4764 46.8078 55.6014 49.0016C56.7264 51.1672 57.2889 53.7266 57.2889 56.6797C57.2889 59.6328 56.7264 62.2062 55.6014 64.4C54.4764 66.5656 52.8592 68.2531 50.7498 69.4625C48.6404 70.6437 46.0951 71.2344 43.1139 71.2344ZM43.1139 63.5141C44.5764 63.5141 45.7154 63.3312 46.531 62.9656C47.3467 62.5719 47.9232 61.8828 48.2607 60.8984C48.5982 59.8859 48.767 58.4797 48.767 56.6797C48.767 54.8516 48.5982 53.4453 48.2607 52.4609C47.9232 51.4766 47.3467 50.8016 46.531 50.4359C45.7154 50.0422 44.5764 49.8453 43.1139 49.8453C41.6514 49.8453 40.4982 50.0422 39.6545 50.4359C38.8389 50.8016 38.2623 51.4766 37.9248 52.4609C37.5873 53.4453 37.4185 54.8516 37.4185 56.6797C37.4185 58.4797 37.5873 59.8859 37.9248 60.8984C38.2623 61.8828 38.8389 62.5719 39.6545 62.9656C40.4982 63.3312 41.6514 63.5141 43.1139 63.5141ZM66.1515 70.8125H58.2203V42.5469H66.7L74.589 55.2453L76.4453 58.7047H76.9937L76.5718 55.2453V42.5469H84.4609V70.8125H76.0234L68.5562 59.0422L66.2781 55.0344H65.7297L66.1515 59.0422V70.8125ZM99.5439 71.2344C96.5064 71.2344 93.933 70.6437 91.8236 69.4625C89.7424 68.2531 88.1674 66.5656 87.0986 64.4C86.0299 62.2062 85.4955 59.6328 85.4955 56.6797C85.4955 53.7266 86.0299 51.1672 87.0986 49.0016C88.1674 46.8078 89.7424 45.1203 91.8236 43.9391C93.933 42.7297 96.5064 42.125 99.5439 42.125C102.525 42.125 105 42.6031 106.969 43.5594C108.938 44.5156 110.4 45.8375 111.356 47.525C112.341 49.2125 112.833 51.1531 112.833 53.3469V54.3172H104.353V54.1906C104.353 52.5594 104.016 51.4344 103.341 50.8156C102.666 50.1687 101.344 49.8453 99.3752 49.8453C98.0252 49.8453 96.9564 50.0141 96.1689 50.3516C95.4095 50.6609 94.8611 51.3078 94.5236 52.2922C94.1861 53.2484 94.0174 54.7109 94.0174 56.6797C94.0174 58.6203 94.1861 60.0828 94.5236 61.0672C94.8611 62.0516 95.4095 62.7125 96.1689 63.05C96.9564 63.3594 98.0252 63.5141 99.3752 63.5141C101.344 63.5141 102.666 63.2047 103.341 62.5859C104.016 61.9391 104.353 60.8 104.353 59.1687V59.0422H112.833V60.0125C112.833 62.2062 112.341 64.1469 111.356 65.8344C110.4 67.5219 108.938 68.8437 106.969 69.8C105 70.7563 102.525 71.2344 99.5439 71.2344ZM121.72 70.8125H113.789V42.5469H121.72V70.8125ZM136.613 70.8125H115.941V63.6828H136.613V70.8125ZM135.98 60.1812H115.941V53.0937H135.98V60.1812ZM136.613 49.6766H115.941V42.5469H136.613V49.6766ZM151.363 63.3453H140.647V56.2578H151.067C152.417 56.2578 153.331 56.0609 153.81 55.6672C154.288 55.2453 154.527 54.3453 154.527 52.9672C154.527 51.5609 154.288 50.6609 153.81 50.2672C153.331 49.8734 152.417 49.6766 151.067 49.6766H140.647V42.5469H151.363C153.613 42.5469 155.567 42.9687 157.227 43.8125C158.886 44.6281 160.166 45.8234 161.066 47.3984C161.994 48.9453 162.458 50.8016 162.458 52.9672C162.458 55.1891 161.994 57.0734 161.066 58.6203C160.166 60.1672 158.886 61.3484 157.227 62.1641C155.567 62.9516 153.613 63.3453 151.363 63.3453ZM145.921 70.8125H137.989V42.5469H145.921V70.8125ZM178.745 70.8125H170.814V42.5469H178.745V70.8125ZM187.436 49.6766H162.123V42.5469H187.436V49.6766Z" fill="white"/>
</svg>
